<?xml version="1.0" encoding="utf-8"?>
<!-- Generator: Fusion 360, Shaper Origin Export Add-In, Version 1.6.10  -->
<svg xmlns="http://www.w3.org/2000/svg" xmlns:xlink="http://www.w3.org/1999/xlink" xmlns:shaper="http://www.shapertools.com/namespaces/shaper" shaper:fusionaddin="version:1.6.10" width="10.238cm" height="8.308cm" version="1.1" x="0cm" y="0cm" viewBox="0 0 10.238 8.308" enable-background="new 0 0 10.238 8.308" xml:space="preserve"><path d="M4.949,-0.5625 L4.949,0.5625 5.119,0.5625 5.119,4.154 -5.119,4.154 -5.119,0.5625 -4.949,0.5625 -4.949,-0.5625 -5.119,-0.5625 -5.119,-4.154 5.119,-4.154 5.119,-0.5625 4.949,-0.5625z" transform="matrix(1,0,0,-1,5.119,4.154)" fill="rgb(0,0,0)" stroke-linecap="round" stroke-linejoin="round" /><path d="M-4.37,-2.5 a0.12,0.12 0 1,1 0.24,0 a0.12,0.12 0 1,1 -0.24,0z" transform="matrix(1,0,0,-1,5.119,4.154)" fill="rgb(255,255,255)" stroke="rgb(0,0,0)" stroke-width="0.0010cm" stroke-linecap="round" stroke-linejoin="round" /><path d="M4.13,2.5 a0.12,0.12 0 1,1 0.24,0 a0.12,0.12 0 1,1 -0.24,0z" transform="matrix(1,0,0,-1,5.119,4.154)" fill="rgb(255,255,255)" stroke="rgb(0,0,0)" stroke-width="0.0010cm" stroke-linecap="round" stroke-linejoin="round" /></svg>